<mxfile host="65bd71144e">
    <diagram id="OuUK8jZHMBKWmA10RtNI" name="Page-1">
        <mxGraphModel dx="2458" dy="1753" grid="1" gridSize="10" guides="1" tooltips="1" connect="1" arrows="1" fold="1" page="1" pageScale="1" pageWidth="1169" pageHeight="827" math="0" shadow="0">
            <root>
                <mxCell id="0"/>
                <mxCell id="1" parent="0"/>
                <mxCell id="4" value="" style="edgeStyle=none;html=1;" edge="1" parent="1" source="2" target="3">
                    <mxGeometry relative="1" as="geometry"/>
                </mxCell>
                <mxCell id="2" value="Start" style="strokeWidth=2;html=1;shape=mxgraph.flowchart.start_1;whiteSpace=wrap;fontSize=22;" vertex="1" parent="1">
                    <mxGeometry x="450" y="240" width="260" height="80" as="geometry"/>
                </mxCell>
                <mxCell id="8" value="False" style="edgeStyle=none;html=1;fontSize=16;" edge="1" parent="1" source="3" target="7">
                    <mxGeometry relative="1" as="geometry"/>
                </mxCell>
                <mxCell id="10" value="True" style="edgeStyle=none;html=1;fontSize=16;" edge="1" parent="1" source="3" target="9">
                    <mxGeometry relative="1" as="geometry"/>
                </mxCell>
                <mxCell id="3" value="&lt;div style=&quot;color: rgb(59, 59, 59); font-family: Consolas, &amp;quot;Courier New&amp;quot;, monospace; font-size: 14px; line-height: 19px;&quot;&gt;&lt;span style=&quot;color: #001080;&quot;&gt;$_POST&lt;/span&gt;&lt;span style=&quot;color: #000000;&quot;&gt;[&lt;/span&gt;&lt;span style=&quot;color: #a31515;&quot;&gt;'username'&lt;/span&gt;&lt;span style=&quot;color: #000000;&quot;&gt;] and&amp;nbsp;&lt;/span&gt;&lt;span style=&quot;color: rgb(0, 16, 128);&quot;&gt;$_POST&lt;/span&gt;&lt;span style=&quot;color: rgb(0, 0, 0);&quot;&gt;[&lt;/span&gt;&lt;span style=&quot;color: rgb(163, 21, 21);&quot;&gt;'password'&lt;/span&gt;&lt;span style=&quot;color: rgb(0, 0, 0);&quot;&gt;] is set&lt;/span&gt;&lt;/div&gt;" style="rhombus;whiteSpace=wrap;html=1;strokeWidth=2;spacingLeft=20;spacingRight=20;labelBackgroundColor=none;" vertex="1" parent="1">
                    <mxGeometry x="480" y="400" width="200" height="190" as="geometry"/>
                </mxCell>
                <mxCell id="24" style="edgeStyle=none;html=1;entryX=0.5;entryY=0;entryDx=0;entryDy=0;entryPerimeter=0;fontSize=16;" edge="1" parent="1" source="7" target="21">
                    <mxGeometry relative="1" as="geometry">
                        <Array as="points">
                            <mxPoint x="270" y="1480"/>
                            <mxPoint x="580" y="1480"/>
                        </Array>
                    </mxGeometry>
                </mxCell>
                <mxCell id="7" value="Render HTML Form" style="whiteSpace=wrap;strokeWidth=2;spacingLeft=20;spacingRight=20;labelBackgroundColor=none;fontSize=16;" vertex="1" parent="1">
                    <mxGeometry x="180" y="449" width="190" height="100" as="geometry"/>
                </mxCell>
                <mxCell id="14" style="edgeStyle=none;html=1;entryX=0.5;entryY=0;entryDx=0;entryDy=0;fontSize=16;" edge="1" parent="1" source="9" target="13">
                    <mxGeometry relative="1" as="geometry"/>
                </mxCell>
                <mxCell id="9" value="Prepare SQL query to select user from database" style="whiteSpace=wrap;strokeWidth=2;spacingLeft=20;spacingRight=20;labelBackgroundColor=none;fontSize=16;" vertex="1" parent="1">
                    <mxGeometry x="485" y="700" width="190" height="100" as="geometry"/>
                </mxCell>
                <mxCell id="16" style="edgeStyle=none;html=1;entryX=0.5;entryY=0;entryDx=0;entryDy=0;fontSize=16;" edge="1" parent="1" source="13" target="15">
                    <mxGeometry relative="1" as="geometry"/>
                </mxCell>
                <mxCell id="13" value="Execute SQL query" style="whiteSpace=wrap;strokeWidth=2;spacingLeft=20;spacingRight=20;labelBackgroundColor=none;fontSize=16;" vertex="1" parent="1">
                    <mxGeometry x="485" y="900" width="190" height="100" as="geometry"/>
                </mxCell>
                <mxCell id="18" value="True" style="edgeStyle=none;html=1;entryX=0.5;entryY=0;entryDx=0;entryDy=0;fontSize=16;" edge="1" parent="1" source="15" target="17">
                    <mxGeometry relative="1" as="geometry"/>
                </mxCell>
                <mxCell id="20" value="False" style="edgeStyle=none;html=1;entryX=0;entryY=0.5;entryDx=0;entryDy=0;fontSize=16;" edge="1" parent="1" source="15" target="19">
                    <mxGeometry relative="1" as="geometry"/>
                </mxCell>
                <mxCell id="15" value="username and password correct" style="rhombus;whiteSpace=wrap;strokeWidth=2;spacingLeft=20;spacingRight=20;labelBackgroundColor=none;html=1;fontSize=16;" vertex="1" parent="1">
                    <mxGeometry x="480" y="1051" width="200" height="190" as="geometry"/>
                </mxCell>
                <mxCell id="23" style="edgeStyle=none;html=1;entryX=0.5;entryY=0;entryDx=0;entryDy=0;entryPerimeter=0;fontSize=16;" edge="1" parent="1" source="17" target="21">
                    <mxGeometry relative="1" as="geometry"/>
                </mxCell>
                <mxCell id="17" value="Set session, redirect to index.php" style="whiteSpace=wrap;strokeWidth=2;spacingLeft=20;spacingRight=20;labelBackgroundColor=none;fontSize=16;" vertex="1" parent="1">
                    <mxGeometry x="485" y="1310" width="190" height="100" as="geometry"/>
                </mxCell>
                <mxCell id="22" style="edgeStyle=none;html=1;entryX=0.5;entryY=0;entryDx=0;entryDy=0;entryPerimeter=0;fontSize=16;" edge="1" parent="1" source="19" target="21">
                    <mxGeometry relative="1" as="geometry">
                        <Array as="points">
                            <mxPoint x="860" y="1480"/>
                            <mxPoint x="580" y="1480"/>
                        </Array>
                    </mxGeometry>
                </mxCell>
                <mxCell id="19" value="Set notification: Wrong username or password" style="whiteSpace=wrap;strokeWidth=2;spacingLeft=20;spacingRight=20;labelBackgroundColor=none;fontSize=16;" vertex="1" parent="1">
                    <mxGeometry x="760" y="1096" width="190" height="100" as="geometry"/>
                </mxCell>
                <mxCell id="21" value="End" style="strokeWidth=2;html=1;shape=mxgraph.flowchart.start_1;whiteSpace=wrap;fontSize=22;" vertex="1" parent="1">
                    <mxGeometry x="450" y="1530" width="260" height="80" as="geometry"/>
                </mxCell>
                <mxCell id="25" value="1" style="text;html=1;strokeColor=none;fillColor=none;align=center;verticalAlign=middle;whiteSpace=wrap;rounded=0;labelBackgroundColor=none;fontSize=20;" vertex="1" parent="1">
                    <mxGeometry x="693" y="236" width="60" height="30" as="geometry"/>
                </mxCell>
                <mxCell id="27" value="2" style="text;html=1;strokeColor=none;fillColor=none;align=center;verticalAlign=middle;whiteSpace=wrap;rounded=0;labelBackgroundColor=none;fontSize=20;" vertex="1" parent="1">
                    <mxGeometry x="650" y="430" width="60" height="30" as="geometry"/>
                </mxCell>
                <mxCell id="28" value="3" style="text;html=1;strokeColor=none;fillColor=none;align=center;verticalAlign=middle;whiteSpace=wrap;rounded=0;labelBackgroundColor=none;fontSize=20;" vertex="1" parent="1">
                    <mxGeometry x="310" y="414" width="60" height="30" as="geometry"/>
                </mxCell>
                <mxCell id="29" value="4" style="text;html=1;strokeColor=none;fillColor=none;align=center;verticalAlign=middle;whiteSpace=wrap;rounded=0;labelBackgroundColor=none;fontSize=20;" vertex="1" parent="1">
                    <mxGeometry x="620" y="670" width="60" height="30" as="geometry"/>
                </mxCell>
                <mxCell id="30" value="5" style="text;html=1;strokeColor=none;fillColor=none;align=center;verticalAlign=middle;whiteSpace=wrap;rounded=0;labelBackgroundColor=none;fontSize=20;" vertex="1" parent="1">
                    <mxGeometry x="620" y="870" width="60" height="30" as="geometry"/>
                </mxCell>
                <mxCell id="31" value="6&lt;span style=&quot;color: rgba(0, 0, 0, 0); font-family: monospace; font-size: 0px; text-align: start;&quot;&gt;%3CmxGraphModel%3E%3Croot%3E%3CmxCell%20id%3D%220%22%2F%3E%3CmxCell%20id%3D%221%22%20parent%3D%220%22%2F%3E%3CmxCell%20id%3D%222%22%20value%3D%221%22%20style%3D%22text%3Bhtml%3D1%3BstrokeColor%3Dnone%3BfillColor%3Dnone%3Balign%3Dcenter%3BverticalAlign%3Dmiddle%3BwhiteSpace%3Dwrap%3Brounded%3D0%3BlabelBackgroundColor%3Dnone%3BfontSize%3D20%3B%22%20vertex%3D%221%22%20parent%3D%221%22%3E%3CmxGeometry%20x%3D%22693%22%20y%3D%22236%22%20width%3D%2260%22%20height%3D%2230%22%20as%3D%22geometry%22%2F%3E%3C%2FmxCell%3E%3C%2Froot%3E%3C%2FmxGraphModel%3E&lt;/span&gt;" style="text;html=1;strokeColor=none;fillColor=none;align=center;verticalAlign=middle;whiteSpace=wrap;rounded=0;labelBackgroundColor=none;fontSize=20;" vertex="1" parent="1">
                    <mxGeometry x="620" y="1040" width="60" height="30" as="geometry"/>
                </mxCell>
                <mxCell id="32" value="7" style="text;html=1;strokeColor=none;fillColor=none;align=center;verticalAlign=middle;whiteSpace=wrap;rounded=0;labelBackgroundColor=none;fontSize=20;" vertex="1" parent="1">
                    <mxGeometry x="900" y="1051" width="60" height="30" as="geometry"/>
                </mxCell>
                <mxCell id="33" value="8" style="text;html=1;strokeColor=none;fillColor=none;align=center;verticalAlign=middle;whiteSpace=wrap;rounded=0;labelBackgroundColor=none;fontSize=20;" vertex="1" parent="1">
                    <mxGeometry x="620" y="1280" width="60" height="30" as="geometry"/>
                </mxCell>
                <mxCell id="34" value="9" style="text;html=1;strokeColor=none;fillColor=none;align=center;verticalAlign=middle;whiteSpace=wrap;rounded=0;labelBackgroundColor=none;fontSize=20;" vertex="1" parent="1">
                    <mxGeometry x="660" y="1510" width="60" height="30" as="geometry"/>
                </mxCell>
                <mxCell id="35" value="A" style="text;html=1;strokeColor=none;fillColor=none;align=center;verticalAlign=middle;whiteSpace=wrap;rounded=0;labelBackgroundColor=none;fontSize=20;" vertex="1" parent="1">
                    <mxGeometry x="570" y="350" width="60" height="30" as="geometry"/>
                </mxCell>
                <mxCell id="36" value="B" style="text;html=1;strokeColor=none;fillColor=none;align=center;verticalAlign=middle;whiteSpace=wrap;rounded=0;labelBackgroundColor=none;fontSize=20;" vertex="1" parent="1">
                    <mxGeometry x="390" y="460" width="60" height="30" as="geometry"/>
                </mxCell>
                <mxCell id="37" value="D" style="text;html=1;strokeColor=none;fillColor=none;align=center;verticalAlign=middle;whiteSpace=wrap;rounded=0;labelBackgroundColor=none;fontSize=20;" vertex="1" parent="1">
                    <mxGeometry x="570" y="610" width="60" height="30" as="geometry"/>
                </mxCell>
                <mxCell id="38" value="E" style="text;html=1;strokeColor=none;fillColor=none;align=center;verticalAlign=middle;whiteSpace=wrap;rounded=0;labelBackgroundColor=none;fontSize=20;" vertex="1" parent="1">
                    <mxGeometry x="570" y="827" width="60" height="30" as="geometry"/>
                </mxCell>
                <mxCell id="39" value="C" style="text;html=1;strokeColor=none;fillColor=none;align=center;verticalAlign=middle;whiteSpace=wrap;rounded=0;labelBackgroundColor=none;fontSize=20;" vertex="1" parent="1">
                    <mxGeometry x="270" y="950" width="60" height="30" as="geometry"/>
                </mxCell>
                <mxCell id="40" value="F" style="text;html=1;strokeColor=none;fillColor=none;align=center;verticalAlign=middle;whiteSpace=wrap;rounded=0;labelBackgroundColor=none;fontSize=20;" vertex="1" parent="1">
                    <mxGeometry x="570" y="1010" width="60" height="30" as="geometry"/>
                </mxCell>
                <mxCell id="41" value="G" style="text;html=1;strokeColor=none;fillColor=none;align=center;verticalAlign=middle;whiteSpace=wrap;rounded=0;labelBackgroundColor=none;fontSize=20;" vertex="1" parent="1">
                    <mxGeometry x="680" y="1110" width="60" height="30" as="geometry"/>
                </mxCell>
                <mxCell id="42" value="H" style="text;html=1;strokeColor=none;fillColor=none;align=center;verticalAlign=middle;whiteSpace=wrap;rounded=0;labelBackgroundColor=none;fontSize=20;" vertex="1" parent="1">
                    <mxGeometry x="840" y="1340" width="60" height="30" as="geometry"/>
                </mxCell>
                <mxCell id="43" value="I" style="text;html=1;strokeColor=none;fillColor=none;align=center;verticalAlign=middle;whiteSpace=wrap;rounded=0;labelBackgroundColor=none;fontSize=20;" vertex="1" parent="1">
                    <mxGeometry x="560" y="1241" width="60" height="30" as="geometry"/>
                </mxCell>
                <mxCell id="44" value="J" style="text;html=1;strokeColor=none;fillColor=none;align=center;verticalAlign=middle;whiteSpace=wrap;rounded=0;labelBackgroundColor=none;fontSize=20;" vertex="1" parent="1">
                    <mxGeometry x="560" y="1430" width="60" height="30" as="geometry"/>
                </mxCell>
            </root>
        </mxGraphModel>
    </diagram>
</mxfile>